<svg width="36" height="36" viewBox="0 0 36 36" fill="none" xmlns="http://www.w3.org/2000/svg">
<g clip-path="url(#clip0_144_8968)">
<path d="M29.3565 11.39C29.3493 11.3889 29.2658 11.344 29.1738 11.2869C28.5551 10.908 27.8649 10.7523 27.0115 10.8006C26.0497 10.8531 25.1179 11.1713 24.2189 11.7552C23.7353 12.0686 23.3271 12.4202 22.9295 12.8685C22.4025 13.4612 22.0287 14.1023 21.8226 14.7714C21.2395 16.6627 22.1463 18.3083 23.9882 18.6986C24.651 18.8388 25.5072 18.7903 26.2628 18.5698C27.8847 18.0964 29.3878 16.8342 30.0602 15.3786C30.6755 14.0455 30.5764 12.7394 29.7886 11.8052C29.6623 11.6541 29.3846 11.3885 29.3565 11.39Z" fill="#C4F1F9"/>
<path d="M22.0733 5.97276C21.8823 5.84757 21.6248 5.73425 21.3872 5.66774C20.7229 5.48117 19.9347 5.56409 19.1933 5.89922C18.0256 6.428 16.9869 7.53114 16.4041 8.86396C16.1086 9.54325 15.925 10.3715 15.9294 11.0142C15.9378 12.2166 16.3984 13.1945 17.2007 13.7073C18.4046 14.4794 20.1363 14.0931 21.5224 12.7427C21.7485 12.5215 22.2599 11.8831 22.4189 11.623C23.5376 9.79265 23.6229 7.6991 22.6265 6.47456C22.4948 6.31395 22.2315 6.07291 22.0733 5.97276Z" fill="#C4F1F9"/>
<path d="M13.2239 6.46354C12.8243 6.20844 12.2667 6.08389 11.7901 6.14508C11.1099 6.23086 10.4537 6.57988 9.81675 7.18816C9.54577 7.44695 9.42134 7.58562 9.31443 7.75152C9.25481 7.84182 9.15831 7.98889 9.09992 8.07773C8.46083 9.03502 8.07444 10.2845 8.04915 11.4662C8.04347 11.8097 8.12766 12.537 8.20914 12.8183C8.42373 13.5698 8.75327 14.0944 9.24875 14.4725C10.2223 15.2143 11.5817 14.9992 12.7307 13.9185C12.9436 13.7162 13.3439 13.2326 13.5172 12.962C14.7971 10.9812 14.9152 8.37389 13.7866 6.97329C13.6691 6.82461 13.3761 6.56119 13.2239 6.46354Z" fill="#C4F1F9"/>
<path d="M28.5546 20.9162C27.6751 20.4087 26.432 20.3505 25.17 20.7576C23.5512 21.2787 22.1655 22.5067 21.6888 23.8383C21.4952 24.38 21.4571 24.9194 21.5811 25.3843C21.8977 26.5722 23.1013 27.2388 24.7157 27.1174C25.8211 27.035 27.0472 26.5327 27.9566 25.7922C28.4427 25.3957 28.743 25.0763 28.9888 24.6936C29.3107 24.1945 29.4775 23.8257 29.5714 23.4058C29.7266 22.7141 29.6061 22.0366 29.2358 21.5253C29.1064 21.3491 28.7514 21.0312 28.5546 20.9162Z" fill="#C4F1F9"/>
<path d="M17.035 18.0715C16.205 17.4602 15.1484 16.8943 14.5532 16.7408C14.1937 16.6496 13.908 16.6404 12.9649 16.6835C12.4806 16.7057 11.9906 16.7155 11.8776 16.7059C11.4728 16.6719 10.8645 16.5725 9.78423 16.3652C8.38044 16.0945 7.61378 15.9849 7.20604 15.9961C6.61756 16.0111 5.82804 16.5414 5.31077 17.2701C4.92859 17.809 4.69379 18.4064 4.65395 18.9318C4.59703 19.7085 4.83244 20.743 5.26809 21.6223C5.92954 22.9541 6.9626 24.2345 8.76616 25.9533C9.08371 26.2549 10.0759 27.1701 10.5874 27.6319C10.8185 27.8408 11.1264 28.1217 11.2703 28.255C11.6033 28.567 12.0992 28.9831 12.4011 29.2039C12.5289 29.2986 12.7722 29.4802 12.9407 29.6065C14.5588 30.8214 16.0241 31.4872 17.3442 31.6075C17.6548 31.6351 18.2133 31.6175 18.4936 31.5721C19.2625 31.4479 19.9126 30.763 20.3027 29.6694C20.5499 28.9772 20.5653 28.3461 20.3588 27.4311C20.3268 27.2864 20.2121 26.8394 20.1045 26.4383C19.7122 24.9814 19.6875 24.7703 19.7615 23.3413C19.799 22.591 19.796 22.3027 19.7459 21.8973C19.6827 21.3857 19.5719 21.0622 19.304 20.5893C18.9968 20.0509 18.5962 19.5243 18.1172 19.0271C17.9225 18.8261 17.2392 18.2227 17.035 18.0715Z" fill="#C4F1F9"/>
</g>
<defs>
<clipPath id="clip0_144_8968">
<rect width="26.0192" height="24.5719" fill="white" transform="translate(15.7944) rotate(40)"/>
</clipPath>
</defs>
</svg>
